<svg width="80" height="80" viewBox="0 0 80 80" fill="none" xmlns="http://www.w3.org/2000/svg">
<path d="M67.5 40C67.5 56.5685 54.0686 70 37.5 70C20.9315 70 7.5 56.5685 7.5 40C7.5 23.4315 20.9315 10 37.5 10C39.4226 10 41.303 10.1809 43.125 10.5265" stroke="#48319D" stroke-width="3" stroke-linecap="round" stroke-linejoin="round"/>
<path d="M60.9627 8.86641C60.6296 8.02276 59.4356 8.02276 59.1025 8.86641L55.8593 17.08C55.7522 17.3511 55.5322 17.562 55.2568 17.6575L46.6812 20.6313C45.7847 20.9421 45.7847 22.21 46.6812 22.5209L55.2568 25.4946C55.5322 25.5901 55.7522 25.801 55.8593 26.0722L59.1025 34.2858C59.4356 35.1294 60.6296 35.1294 60.9627 34.2858L64.206 26.0722C64.313 25.801 64.5331 25.5901 64.8085 25.4946L73.3841 22.5209C74.2806 22.21 74.2806 20.9421 73.3841 20.6313L64.8085 17.6575C64.5331 17.562 64.313 17.3511 64.206 17.08L60.9627 8.86641Z" stroke="#48319D" stroke-width="3" stroke-linejoin="round"/>
<path d="M29 34L39.5 38.6666V60.6666" stroke="#48319D" stroke-width="3" stroke-linecap="round" stroke-linejoin="round"/>
</svg>
