<svg width="383" height="222" viewBox="0 0 383 222" fill="none" xmlns="http://www.w3.org/2000/svg">
<g filter="url(#filter0_f_76_926)">
<path d="M38.7381 202.751H319.028C322.052 202.751 329.372 203.544 335.377 204.522C341.382 205.499 343.433 206.292 339.957 206.292H17.809C14.3333 206.292 16.3838 205.499 22.389 204.522C28.3942 203.544 35.714 202.751 38.7381 202.751Z" fill="black" fill-opacity="0.4"/>
</g>
<g filter="url(#filter1_dd_76_926)">
<path d="M34.6935 15.5959C34.6935 10.8369 34.6935 8.45736 35.6191 6.63967C36.4333 5.04078 37.7324 3.74084 39.3303 2.92616C41.1469 2 43.5249 2 48.2809 2H309.308C314.064 2 316.442 2 318.259 2.92616C319.856 3.74084 321.156 5.04078 321.97 6.63967C322.895 8.45736 322.895 10.8369 322.895 15.5959V186.323C322.895 191.082 322.895 193.461 321.97 195.279C321.156 196.878 319.856 198.178 318.259 198.993C316.442 199.919 314.064 199.919 309.308 199.919H48.2809C43.5249 199.919 41.1469 199.919 39.3303 198.993C37.7324 198.178 36.4333 196.878 35.6191 195.279C34.6935 193.461 34.6935 191.082 34.6935 186.323V15.5959Z" fill="#3A4245"/>
</g>
<path d="M35.4012 15.171C35.4012 10.8086 35.4012 8.62738 36.2496 6.96116C36.996 5.49551 38.1868 4.3039 39.6516 3.55711C41.3168 2.70813 43.4966 2.70813 47.8563 2.70813H309.733C314.092 2.70813 316.272 2.70813 317.937 3.55711C319.402 4.3039 320.593 5.49551 321.339 6.96116C322.188 8.62738 322.188 10.8086 322.188 15.171V186.748C322.188 191.11 322.188 193.291 321.339 194.958C320.593 196.423 319.402 197.615 317.937 198.362C316.272 199.211 314.092 199.211 309.733 199.211H47.8563C43.4966 199.211 41.3168 199.211 39.6516 198.362C38.1868 197.615 36.996 196.423 36.2496 194.958C35.4012 193.291 35.4012 191.11 35.4012 186.748V15.171Z" fill="#262C2D"/>
<path d="M36.1089 14.7461C36.1089 10.7803 36.1089 8.79739 36.8802 7.28265C37.5587 5.95024 38.6413 4.86696 39.9729 4.18806C41.4867 3.41626 43.4684 3.41626 47.4317 3.41626H310.157C314.121 3.41626 316.102 3.41626 317.616 4.18806C318.948 4.86696 320.03 5.95024 320.709 7.28265C321.48 8.79739 321.48 10.7803 321.48 14.7461V187.173C321.48 191.139 321.48 193.122 320.709 194.636C320.03 195.969 318.948 197.052 317.616 197.731C316.102 198.503 314.121 198.503 310.157 198.503H47.4317C43.4684 198.503 41.4867 198.503 39.9729 197.731C38.6413 197.052 37.5587 195.969 36.8802 194.636C36.1089 193.122 36.1089 191.139 36.1089 187.173V14.7461Z" fill="#121515"/>
<rect x="36.1089" y="189.12" width="285.371" height="5.31087" fill="#262C2D"/>
<path fill-rule="evenodd" clip-rule="evenodd" d="M178.794 9.96631C179.332 9.96631 179.767 9.53038 179.767 8.99264C179.767 8.45491 179.332 8.01898 178.794 8.01898C178.257 8.01898 177.821 8.45491 177.821 8.99264C177.821 9.53038 178.257 9.96631 178.794 9.96631Z" fill="#262C2D"/>
<path fill-rule="evenodd" clip-rule="evenodd" d="M178.794 9.60117C179.13 9.60117 179.403 9.32872 179.403 8.99263C179.403 8.65655 179.13 8.38409 178.794 8.38409C178.459 8.38409 178.186 8.65655 178.186 8.99263C178.186 9.32872 178.459 9.60117 178.794 9.60117Z" fill="#121515"/>
<path opacity="0.4" fill-rule="evenodd" clip-rule="evenodd" d="M178.794 8.87092C178.862 8.87092 178.916 8.81643 178.916 8.74921C178.916 8.68199 178.862 8.6275 178.794 8.6275C178.727 8.6275 178.673 8.68199 178.673 8.74921C178.673 8.81643 178.727 8.87092 178.794 8.87092Z" fill="#636F73"/>
<path d="M0.901886 194.785C0.901886 194.589 1.06031 194.431 1.25572 194.431H178.441C178.636 194.431 178.794 194.589 178.794 194.785V199.919H0.901886V194.785Z" fill="url(#paint0_linear_76_926)"/>
<path d="M356.599 194.785C356.599 194.589 356.44 194.431 356.245 194.431H179.06C178.864 194.431 178.706 194.589 178.706 194.785V199.919H356.599V194.785Z" fill="url(#paint1_linear_76_926)"/>
<path d="M157.476 198.326H200.113C202.361 198.326 204.182 196.582 204.182 194.431H153.406C153.406 196.582 155.228 198.326 157.476 198.326Z" fill="#4E4F53"/>
<path d="M157.476 198.326H200.113C202.361 198.326 204.182 196.582 204.182 194.431H153.406C153.406 196.582 155.228 198.326 157.476 198.326Z" fill="url(#paint2_linear_76_926)"/>
<path fill-rule="evenodd" clip-rule="evenodd" d="M178.529 199.919H0.901886C0.901886 199.919 8.68634 204.876 34.2512 204.876H178.529H178.883H323.338C348.903 204.876 356.687 199.919 356.687 199.919H178.883H178.529Z" fill="url(#paint3_linear_76_926)"/>
<g clip-path="url(#clip0_76_926)">
<path d="M382.24 59.4724H382.54C382.706 59.4724 382.841 59.6069 382.841 59.7728V77.793C382.841 77.9589 382.706 78.0934 382.54 78.0934H382.24V59.4724Z" fill="#213744"/>
<path d="M298.731 82.0979L298.43 82.0979C298.264 82.0979 298.13 81.9634 298.13 81.7976L298.13 70.5849C298.13 70.4191 298.264 70.2846 298.43 70.2846L298.731 70.2846L298.731 82.0979Z" fill="#213744"/>
<path d="M298.731 67.0809L298.43 67.0809C298.264 67.0809 298.13 66.9465 298.13 66.7806L298.13 55.568C298.13 55.4021 298.264 55.2676 298.43 55.2676L298.731 55.2676L298.731 67.0809Z" fill="#213744"/>
<path d="M298.731 50.0618L298.43 50.0618C298.264 50.0618 298.13 49.9274 298.13 49.7615L298.13 44.7559C298.13 44.59 298.264 44.4555 298.43 44.4555L298.731 44.4555L298.731 50.0618Z" fill="#213744"/>
<path d="M298.731 29.6388C298.731 24.7941 298.731 22.3717 299.368 20.4112C300.655 16.4491 303.762 13.3427 307.725 12.0553C309.686 11.4183 312.109 11.4183 316.954 11.4183H364.016C368.862 11.4183 371.284 11.4183 373.245 12.0553C377.208 13.3427 380.315 16.4491 381.603 20.4112C382.24 22.3717 382.24 24.7941 382.24 29.6388V164.991C382.24 169.836 382.24 172.258 381.603 174.219C380.315 178.181 377.208 181.287 373.245 182.575C371.284 183.212 368.862 183.212 364.016 183.212H316.954C312.109 183.212 309.686 183.212 307.725 182.575C303.762 181.287 300.655 178.181 299.368 174.219C298.731 172.258 298.731 169.836 298.731 164.991V29.6388Z" fill="#213744"/>
<path fill-rule="evenodd" clip-rule="evenodd" d="M364.096 11.8188H316.874C312.088 11.8188 309.742 11.8212 307.849 12.4361C304.008 13.6839 300.997 16.6947 299.749 20.535C299.134 22.4275 299.131 24.7729 299.131 29.5587V165.071C299.131 169.857 299.134 172.203 299.749 174.095C300.997 177.935 304.008 180.946 307.849 182.194C309.742 182.809 312.088 182.811 316.874 182.811H364.096C368.883 182.811 371.229 182.809 373.121 182.194C376.962 180.946 379.974 177.935 381.222 174.095C381.837 172.203 381.839 169.857 381.839 165.071V29.5587C381.839 24.7729 381.837 22.4275 381.222 20.535C379.974 16.6947 376.962 13.6839 373.121 12.4361C371.229 11.8212 368.883 11.8188 364.096 11.8188ZM299.558 20.4731C298.931 22.4033 298.931 24.7885 298.931 29.5587V165.071C298.931 169.842 298.931 172.227 299.558 174.157C300.826 178.058 303.885 181.117 307.787 182.384C309.718 183.011 312.103 183.011 316.874 183.011H364.096C368.867 183.011 371.253 183.011 373.183 182.384C377.085 181.117 380.144 178.058 381.412 174.157C382.039 172.227 382.039 169.842 382.039 165.071V29.5587C382.039 24.7885 382.039 22.4033 381.412 20.4731C380.144 16.5719 377.085 13.5133 373.183 12.2457C371.253 11.6185 368.867 11.6185 364.096 11.6185H316.874C312.103 11.6185 309.718 11.6185 307.787 12.2457C303.885 13.5133 300.826 16.5719 299.558 20.4731Z" fill="#8EADC1"/>
<path d="M299.732 29.2384C299.732 24.7663 299.732 22.5302 300.32 20.7206C301.509 17.0632 304.377 14.1958 308.035 13.0074C309.845 12.4194 312.081 12.4194 316.554 12.4194H364.416C368.889 12.4194 371.126 12.4194 372.936 13.0074C376.594 14.1958 379.462 17.0632 380.65 20.7206C381.238 22.5302 381.238 24.7663 381.238 29.2384V165.392C381.238 169.864 381.238 172.1 380.65 173.909C379.462 177.567 376.594 180.434 372.936 181.623C371.126 182.211 368.889 182.211 364.416 182.211H316.554C312.081 182.211 309.845 182.211 308.035 181.623C304.377 180.434 301.509 177.567 300.32 173.909C299.732 172.1 299.732 169.864 299.732 165.392V29.2384Z" fill="#121515"/>
<path d="M364.416 11.4183H365.618V12.4195H364.416V11.4183Z" fill="#36454C"/>
<path d="M381.238 28.6377H382.24V29.839H381.238V28.6377Z" fill="#36454C"/>
<path d="M298.731 28.6377H299.732V29.839H298.731V28.6377Z" fill="#36454C"/>
<path d="M298.731 164.791H299.732V165.992H298.731V164.791Z" fill="#36454C"/>
<path d="M381.238 164.791H382.24V165.992H381.238V164.791Z" fill="#36454C"/>
<path d="M315.352 182.211H316.554V183.212H315.352V182.211Z" fill="#36454C"/>
<path fill-rule="evenodd" clip-rule="evenodd" d="M348.195 18.8267C348.969 18.8267 349.597 18.1991 349.597 17.4251C349.597 16.651 348.969 16.0235 348.195 16.0235C347.421 16.0235 346.793 16.651 346.793 17.4251C346.793 18.1991 347.421 18.8267 348.195 18.8267Z" fill="#262C2D"/>
<path fill-rule="evenodd" clip-rule="evenodd" d="M348.195 18.301C348.679 18.301 349.071 17.9089 349.071 17.4251C349.071 16.9413 348.679 16.5491 348.195 16.5491C347.711 16.5491 347.319 16.9413 347.319 17.4251C347.319 17.9089 347.711 18.301 348.195 18.301Z" fill="#121515"/>
<path opacity="0.4" fill-rule="evenodd" clip-rule="evenodd" d="M348.195 17.2499C348.292 17.2499 348.37 17.1714 348.37 17.0747C348.37 16.9779 348.292 16.8995 348.195 16.8995C348.098 16.8995 348.02 16.9779 348.02 17.0747C348.02 17.1714 348.098 17.2499 348.195 17.2499Z" fill="#636F73"/>
<path fill-rule="evenodd" clip-rule="evenodd" d="M336.18 17.4251C336.18 17.0933 336.448 16.8244 336.78 16.8244H344.19C344.522 16.8244 344.791 17.0933 344.791 17.4251C344.791 17.7568 344.522 18.0258 344.19 18.0258H336.78C336.448 18.0258 336.18 17.7568 336.18 17.4251Z" fill="#262C2D"/>
</g>
<defs>
<filter id="filter0_f_76_926" x="1.11697" y="187.751" width="355.532" height="33.5406" filterUnits="userSpaceOnUse" color-interpolation-filters="sRGB">
<feFlood flood-opacity="0" result="BackgroundImageFix"/>
<feBlend mode="normal" in="SourceGraphic" in2="BackgroundImageFix" result="shape"/>
<feGaussianBlur stdDeviation="7.5" result="effect1_foregroundBlur_76_926"/>
</filter>
<filter id="filter1_dd_76_926" x="30.6935" y="0" width="296.202" height="205.919" filterUnits="userSpaceOnUse" color-interpolation-filters="sRGB">
<feFlood flood-opacity="0" result="BackgroundImageFix"/>
<feColorMatrix in="SourceAlpha" type="matrix" values="0 0 0 0 0 0 0 0 0 0 0 0 0 0 0 0 0 0 127 0" result="hardAlpha"/>
<feOffset/>
<feGaussianBlur stdDeviation="1"/>
<feColorMatrix type="matrix" values="0 0 0 0 0 0 0 0 0 0.0823529 0 0 0 0 0.25098 0 0 0 0.14 0"/>
<feBlend mode="normal" in2="BackgroundImageFix" result="effect1_dropShadow_76_926"/>
<feColorMatrix in="SourceAlpha" type="matrix" values="0 0 0 0 0 0 0 0 0 0 0 0 0 0 0 0 0 0 127 0" result="hardAlpha"/>
<feOffset dy="2"/>
<feGaussianBlur stdDeviation="2"/>
<feColorMatrix type="matrix" values="0 0 0 0 0 0 0 0 0 0.0823529 0 0 0 0 0.25098 0 0 0 0.05 0"/>
<feBlend mode="normal" in2="effect1_dropShadow_76_926" result="effect2_dropShadow_76_926"/>
<feBlend mode="normal" in="SourceGraphic" in2="effect2_dropShadow_76_926" result="shape"/>
</filter>
<linearGradient id="paint0_linear_76_926" x1="0.901886" y1="197.263" x2="178.794" y2="197.263" gradientUnits="userSpaceOnUse">
<stop stop-color="#303135"/>
<stop offset="0.0218797" stop-color="#535458"/>
<stop offset="0.0363004" stop-color="#4D4E52"/>
<stop offset="0.05818" stop-color="#333438"/>
<stop offset="0.0865241" stop-color="#35363A"/>
<stop offset="0.135753" stop-color="#4E4F53"/>
<stop offset="0.756906" stop-color="#818286"/>
<stop offset="1" stop-color="#818286"/>
</linearGradient>
<linearGradient id="paint1_linear_76_926" x1="356.599" y1="197.263" x2="178.706" y2="197.263" gradientUnits="userSpaceOnUse">
<stop stop-color="#303135"/>
<stop offset="0.0218797" stop-color="#535458"/>
<stop offset="0.0363004" stop-color="#4D4E52"/>
<stop offset="0.05818" stop-color="#333438"/>
<stop offset="0.0865241" stop-color="#35363A"/>
<stop offset="0.135753" stop-color="#4E4F53"/>
<stop offset="0.756906" stop-color="#818286"/>
<stop offset="1" stop-color="#818286"/>
</linearGradient>
<linearGradient id="paint2_linear_76_926" x1="153.406" y1="196.378" x2="204.182" y2="196.378" gradientUnits="userSpaceOnUse">
<stop stop-opacity="0.5"/>
<stop offset="0.139373" stop-color="#818487" stop-opacity="0"/>
<stop offset="0.860627" stop-color="#818487" stop-opacity="0"/>
<stop offset="1" stop-opacity="0.5"/>
</linearGradient>
<linearGradient id="paint3_linear_76_926" x1="178.794" y1="199.919" x2="178.794" y2="204.876" gradientUnits="userSpaceOnUse">
<stop stop-color="#303135"/>
<stop offset="1" stop-color="#08090D"/>
</linearGradient>
<clipPath id="clip0_76_926">
<rect width="84.7107" height="171.793" fill="white" transform="translate(298.13 11.4183)"/>
</clipPath>
</defs>
</svg>
