<svg width="80" height="80" viewBox="0 0 80 80" fill="none" xmlns="http://www.w3.org/2000/svg">
<path d="M20.8 40C20.8 43.5346 17.9346 46.4 14.4 46.4C10.8654 46.4 8 43.5346 8 40C8 36.4654 10.8654 33.6 14.4 33.6C17.9346 33.6 20.8 36.4654 20.8 40ZM20.8 40H59.2M59.2 40C59.2 43.5346 62.0654 46.4 65.6 46.4C69.1346 46.4 72 43.5346 72 40C72 36.4654 69.1346 33.6 65.6 33.6C62.0654 33.6 59.2 36.4654 59.2 40ZM59.2 14.4C59.2 17.9346 62.0654 20.8 65.6 20.8C69.1346 20.8 72 17.9346 72 14.4C72 10.8654 69.1346 8 65.6 8C62.0654 8 59.2 10.8654 59.2 14.4ZM59.2 14.4H40.8C39.0327 14.4 37.6 15.8327 37.6 17.6V62.4C37.6 64.1673 39.0327 65.6 40.8 65.6H59.2M59.2 65.6C59.2 69.1346 62.0654 72 65.6 72C69.1346 72 72 69.1346 72 65.6C72 62.0654 69.1346 59.2 65.6 59.2C62.0654 59.2 59.2 62.0654 59.2 65.6Z" stroke="#48319D" stroke-width="3" stroke-linecap="round"/>
</svg>
