<svg width="80" height="80" viewBox="0 0 80 80" fill="none" xmlns="http://www.w3.org/2000/svg">
<path d="M44.1667 69.0549C41.7695 69.6719 39.2564 70 36.6667 70C20.0981 70 6.66666 56.5685 6.66666 40C6.66666 23.4315 20.0981 10 36.6667 10C51.9652 10 64.5892 21.4513 66.4346 36.25M10.4167 51.25H19.1667C22.6184 51.25 25.4167 48.4518 25.4167 45V36.875C25.4167 33.4232 28.2149 30.625 31.6667 30.625H37.9167C41.3684 30.625 44.1667 27.8268 44.1667 24.375V13.75M63.0654 58.8191L71.6533 55.8499C73.2631 55.2934 73.3169 53.0365 71.7355 52.4039L50.4434 43.8858C48.9622 43.2932 47.4806 44.7384 48.036 46.2339L56.1469 68.0723C56.7396 69.6682 58.9956 69.6718 59.5934 68.0778L63.0654 58.8191Z" stroke="#48319D" stroke-width="3" stroke-linecap="round" stroke-linejoin="round"/>
</svg>
