<svg width="385" height="195" viewBox="0 0 385 195" fill="none" xmlns="http://www.w3.org/2000/svg">
<g clip-path="url(#clip0_76_879)">
<path d="M90.2362 55.5679H90.5584C90.7364 55.5679 90.8807 55.7129 90.8807 55.8917V75.3243C90.8807 75.5032 90.7364 75.6482 90.5584 75.6482H90.2362V55.5679Z" fill="#213744"/>
<path d="M0.644531 79.9665L0.322258 79.9665C0.144272 79.9665 -1.41733e-05 79.8215 -1.41577e-05 79.6426L-1.31059e-05 67.5513C-1.30903e-05 67.3724 0.144273 67.2274 0.322259 67.2274L0.644532 67.2274L0.644531 79.9665Z" fill="#213744"/>
<path d="M0.644539 63.7727L0.322265 63.7727C0.144279 63.7727 -6.5439e-06 63.6277 -6.52834e-06 63.4488L-5.47651e-06 51.3575C-5.46095e-06 51.1786 0.144281 51.0336 0.322267 51.0336L0.64454 51.0336L0.644539 63.7727Z" fill="#213744"/>
<path d="M0.644524 45.4197L0.322251 45.4197C0.144265 45.4197 -2.12066e-05 45.2747 -2.11911e-05 45.0959L-2.07215e-05 39.6979C-2.0706e-05 39.5191 0.144265 39.3741 0.322251 39.3741L0.644524 39.3741L0.644524 45.4197Z" fill="#213744"/>
<path d="M0.644547 23.3962C0.644547 18.1717 0.644547 15.5595 1.32805 13.4454C2.70945 9.17275 6.0427 5.82292 10.2942 4.43464C12.3978 3.74774 14.9971 3.74774 20.1957 3.74774H70.685C75.8836 3.74774 78.4829 3.74774 80.5865 4.43464C84.8381 5.82292 88.1713 9.17275 89.5527 13.4454C90.2362 15.5595 90.2362 18.1717 90.2362 23.3962V169.356C90.2362 174.581 90.2362 177.193 89.5527 179.307C88.1713 183.58 84.8381 186.929 80.5865 188.318C78.4829 189.005 75.8836 189.005 70.685 189.005H20.1957C14.9971 189.005 12.3978 189.005 10.2942 188.318C6.0427 186.929 2.70945 183.58 1.32805 179.307C0.644547 177.193 0.644547 174.581 0.644547 169.356V23.3962Z" fill="#213744"/>
<path fill-rule="evenodd" clip-rule="evenodd" d="M70.771 4.1796H20.1098C14.9744 4.1796 12.4577 4.18227 10.427 4.84537C6.30629 6.19093 3.07561 9.43769 1.73671 13.5789C1.07689 15.6197 1.07424 18.149 1.07424 23.3099V169.443C1.07424 174.604 1.07689 177.133 1.73671 179.174C3.07561 183.315 6.30629 186.562 10.427 187.907C12.4577 188.57 14.9744 188.573 20.1098 188.573H70.771C75.9063 188.573 78.423 188.57 80.4538 187.907C84.5745 186.562 87.8051 183.315 89.144 179.174C89.8039 177.133 89.8065 174.604 89.8065 169.443V23.3099C89.8065 18.149 89.8039 15.6197 89.144 13.5789C87.8051 9.43769 84.5745 6.19093 80.4538 4.84537C78.423 4.18227 75.9063 4.1796 70.771 4.1796ZM1.53238 13.5122C0.85939 15.5937 0.85939 18.1658 0.85939 23.3099V169.443C0.85939 174.587 0.85939 177.159 1.53238 179.24C2.89253 183.447 6.17449 186.746 10.3606 188.112C12.4318 188.789 14.9912 188.789 20.1098 188.789H70.771C75.8896 188.789 78.4489 188.789 80.5202 188.112C84.7063 186.746 87.9882 183.447 89.3484 179.24C90.0214 177.159 90.0214 174.587 90.0214 169.443V23.3099C90.0214 18.1658 90.0214 15.5937 89.3484 13.5122C87.9882 9.30523 84.7063 6.00694 80.5202 4.64002C78.4489 3.96368 75.8896 3.96368 70.771 3.96368H20.1098C14.9912 3.96368 12.4318 3.96368 10.3606 4.64002C6.17449 6.00694 2.89253 9.30523 1.53238 13.5122Z" fill="#8EADC1"/>
<path d="M1.71879 22.9644C1.71879 18.1418 1.71879 15.7305 2.34971 13.779C3.62485 9.83503 6.7017 6.74288 10.6262 5.4614C12.568 4.82733 14.9673 4.82733 19.766 4.82733H71.1147C75.9134 4.82733 78.3128 4.82733 80.2546 5.4614C84.1791 6.74288 87.2559 9.83503 88.531 13.779C89.162 15.7305 89.162 18.1418 89.162 22.9644V169.788C89.162 174.611 89.162 177.022 88.531 178.973C87.2559 182.917 84.1791 186.01 80.2546 187.291C78.3128 187.925 75.9134 187.925 71.1147 187.925H19.766C14.9673 187.925 12.568 187.925 10.6262 187.291C6.7017 186.01 3.62485 182.917 2.34971 178.973C1.71879 177.022 1.71879 174.611 1.71879 169.788V22.9644Z" fill="#121515"/>
<path d="M71.1147 3.74774H72.4038V4.82733H71.1147V3.74774Z" fill="#36454C"/>
<path d="M89.162 22.3166H90.2362V23.6121H89.162V22.3166Z" fill="#36454C"/>
<path d="M0.644547 22.3166H1.71879V23.6121H0.644547V22.3166Z" fill="#36454C"/>
<path d="M0.644547 169.14H1.71879V170.436H0.644547V169.14Z" fill="#36454C"/>
<path d="M89.162 169.14H90.2362V170.436H89.162V169.14Z" fill="#36454C"/>
<path d="M18.4769 187.925H19.766V189.005H18.4769V187.925Z" fill="#36454C"/>
<path fill-rule="evenodd" clip-rule="evenodd" d="M53.712 11.7366C54.5426 11.7366 55.216 11.06 55.216 10.2252C55.216 9.39049 54.5426 8.71381 53.712 8.71381C52.8814 8.71381 52.2081 9.39049 52.2081 10.2252C52.2081 11.06 52.8814 11.7366 53.712 11.7366Z" fill="#262C2D"/>
<path fill-rule="evenodd" clip-rule="evenodd" d="M53.712 11.1699C54.2312 11.1699 54.652 10.7469 54.652 10.2252C54.652 9.70351 54.2312 9.28058 53.712 9.28058C53.1929 9.28058 52.7721 9.70351 52.7721 10.2252C52.7721 10.7469 53.1929 11.1699 53.712 11.1699Z" fill="#121515"/>
<path opacity="0.4" fill-rule="evenodd" clip-rule="evenodd" d="M53.712 10.0363C53.8159 10.0363 53.9 9.95172 53.9 9.84737C53.9 9.74303 53.8159 9.65845 53.712 9.65845C53.6082 9.65845 53.524 9.74303 53.524 9.84737C53.524 9.95172 53.6082 10.0363 53.712 10.0363Z" fill="#636F73"/>
<path fill-rule="evenodd" clip-rule="evenodd" d="M40.8211 10.2253C40.8211 9.86752 41.1111 9.57751 41.4689 9.57751H49.4119C49.7696 9.57751 50.0596 9.86752 50.0596 10.2253C50.0596 10.583 49.7696 10.873 49.4119 10.873H41.4689C41.1111 10.873 40.8211 10.583 40.8211 10.2253Z" fill="#262C2D"/>
</g>
<g filter="url(#filter0_dd_76_879)">
<path d="M370.601 2C376.344 2 381 6.68859 381 12.4723L381 178.532C381 184.316 376.344 189.005 370.601 189.005L124 189.005C118.257 189.005 113.601 184.316 113.601 178.532L113.601 12.4722C113.601 6.68858 118.257 1.99999 124 1.99999L370.601 2Z" fill="#3A4245"/>
</g>
<path d="M370.304 3.19684C375.555 3.19684 379.812 7.48355 379.812 12.7715L379.812 178.233C379.812 183.521 375.555 187.808 370.304 187.808L124.297 187.808C119.046 187.808 114.789 183.521 114.789 178.233L114.789 12.7715C114.789 7.48354 119.046 3.19683 124.297 3.19683L370.304 3.19684Z" fill="#121515"/>
<path fill-rule="evenodd" clip-rule="evenodd" d="M123.851 89.3685C120.487 89.3685 117.76 92.1147 117.76 95.5023C117.76 98.8899 120.487 101.636 123.851 101.636C127.215 101.636 129.942 98.8899 129.942 95.5023C129.942 92.1147 127.215 89.3685 123.851 89.3685ZM123.851 100.857C120.915 100.857 118.534 98.4597 118.534 95.5023C118.534 92.5449 120.915 90.1474 123.851 90.1474C126.788 90.1474 129.169 92.5449 129.169 95.5023C129.169 98.4597 126.788 100.857 123.851 100.857Z" fill="#262C2D"/>
<path d="M361.391 8.88177C361.719 8.88177 361.985 9.14969 361.985 9.48019L361.985 181.524C361.985 181.855 361.719 182.123 361.391 182.123L133.507 182.123C133.179 182.123 132.913 181.855 132.913 181.524L132.913 9.48018C132.913 9.14968 133.179 8.88176 133.507 8.88176L361.391 8.88177Z" fill="#262C2D"/>
<path fill-rule="evenodd" clip-rule="evenodd" d="M369.71 95.5023C369.71 96.2459 370.308 96.8488 371.047 96.8488C371.785 96.8488 372.384 96.2459 372.384 95.5023C372.384 94.7587 371.785 94.1559 371.047 94.1559C370.308 94.1559 369.71 94.7587 369.71 95.5023Z" fill="#262C2D"/>
<path fill-rule="evenodd" clip-rule="evenodd" d="M370.211 95.5023C370.211 95.967 370.585 96.3438 371.047 96.3438C371.508 96.3438 371.882 95.967 371.882 95.5023C371.882 95.0375 371.508 94.6608 371.047 94.6608C370.585 94.6608 370.211 95.0375 370.211 95.5023Z" fill="#121515"/>
<path opacity="0.4" fill-rule="evenodd" clip-rule="evenodd" d="M371.214 95.5023C371.214 95.5952 371.289 95.6706 371.381 95.6706C371.473 95.6706 371.548 95.5952 371.548 95.5023C371.548 95.4093 371.473 95.334 371.381 95.334C371.289 95.334 371.214 95.4093 371.214 95.5023Z" fill="#636F73"/>
<defs>
<filter id="filter0_dd_76_879" x="109.601" y="0" width="275.399" height="195.005" filterUnits="userSpaceOnUse" color-interpolation-filters="sRGB">
<feFlood flood-opacity="0" result="BackgroundImageFix"/>
<feColorMatrix in="SourceAlpha" type="matrix" values="0 0 0 0 0 0 0 0 0 0 0 0 0 0 0 0 0 0 127 0" result="hardAlpha"/>
<feOffset/>
<feGaussianBlur stdDeviation="1"/>
<feColorMatrix type="matrix" values="0 0 0 0 0 0 0 0 0 0.0823529 0 0 0 0 0.25098 0 0 0 0.14 0"/>
<feBlend mode="normal" in2="BackgroundImageFix" result="effect1_dropShadow_76_879"/>
<feColorMatrix in="SourceAlpha" type="matrix" values="0 0 0 0 0 0 0 0 0 0 0 0 0 0 0 0 0 0 127 0" result="hardAlpha"/>
<feOffset dy="2"/>
<feGaussianBlur stdDeviation="2"/>
<feColorMatrix type="matrix" values="0 0 0 0 0 0 0 0 0 0.0823529 0 0 0 0 0.25098 0 0 0 0.05 0"/>
<feBlend mode="normal" in2="effect1_dropShadow_76_879" result="effect2_dropShadow_76_879"/>
<feBlend mode="normal" in="SourceGraphic" in2="effect2_dropShadow_76_879" result="shape"/>
</filter>
<clipPath id="clip0_76_879">
<rect width="90.8808" height="185.257" fill="white" transform="translate(0 3.74774)"/>
</clipPath>
</defs>
</svg>
