<svg width="40" height="43" viewBox="0 0 40 43" fill="none" xmlns="http://www.w3.org/2000/svg">
<ellipse cx="20" cy="21.4181" rx="20" ry="21.0909" fill="black" fill-opacity="0.3"/>
<g clip-path="url(#clip0_76_1092)">
<path d="M19.9989 16.2669C17.1612 16.2669 14.8723 18.6812 14.8723 21.6744C14.8723 24.6675 17.1612 27.0818 19.9989 27.0818C22.8366 27.0818 25.1255 24.6675 25.1255 21.6744C25.1255 18.6812 22.8366 16.2669 19.9989 16.2669ZM19.9989 25.1899C18.1651 25.1899 16.6659 23.6133 16.6659 21.6744C16.6659 19.7354 18.1606 18.1588 19.9989 18.1588C21.8371 18.1588 23.3318 19.7354 23.3318 21.6744C23.3318 23.6133 21.8327 25.1899 19.9989 25.1899ZM26.5309 16.0457C26.5309 16.747 25.9955 17.307 25.3352 17.307C24.6704 17.307 24.1394 16.7422 24.1394 16.0457C24.1394 15.3492 24.6748 14.7845 25.3352 14.7845C25.9955 14.7845 26.5309 15.3492 26.5309 16.0457ZM29.9264 17.3258C29.8505 15.6363 29.4847 14.1397 28.3112 12.9067C27.1422 11.6737 25.7234 11.2877 24.1216 11.203C22.4707 11.1042 17.5226 11.1042 15.8717 11.203C14.2744 11.283 12.8555 11.6689 11.6821 12.902C10.5086 14.135 10.1472 15.6316 10.0669 17.3211C9.97322 19.0624 9.97322 24.2816 10.0669 26.0229C10.1428 27.7124 10.5086 29.209 11.6821 30.442C12.8555 31.6751 14.2699 32.061 15.8717 32.1457C17.5226 32.2445 22.4707 32.2445 24.1216 32.1457C25.7234 32.0657 27.1422 31.6798 28.3112 30.442C29.4802 29.209 29.8461 27.7124 29.9264 26.0229C30.0201 24.2816 30.0201 19.0671 29.9264 17.3258ZM27.7936 27.8913C27.4456 28.8137 26.7719 29.5243 25.8929 29.8961C24.5767 30.4467 21.4534 30.3197 19.9989 30.3197C18.5443 30.3197 15.4166 30.442 14.1048 29.8961C13.2303 29.529 12.5566 28.8184 12.2041 27.8913C11.6821 26.5029 11.8026 23.2086 11.8026 21.6744C11.8026 20.1401 11.6865 16.8411 12.2041 15.4574C12.5521 14.535 13.2259 13.8244 14.1048 13.4526C15.4211 12.902 18.5443 13.029 19.9989 13.029C21.4534 13.029 24.5811 12.9067 25.8929 13.4526C26.7674 13.8197 27.4411 14.5303 27.7936 15.4574C28.3157 16.8458 28.1952 20.1401 28.1952 21.6744C28.1952 23.2086 28.3157 26.5076 27.7936 27.8913Z" fill="white"/>
</g>
<defs>
<clipPath id="clip0_76_1092">
<rect width="20" height="21.0909" fill="white" transform="translate(10 10.8726)"/>
</clipPath>
</defs>
</svg>
