<svg width="40" height="43" viewBox="0 0 40 43" fill="none" xmlns="http://www.w3.org/2000/svg">
<ellipse cx="20" cy="21.4181" rx="20" ry="21.0909" fill="black" fill-opacity="0.3"/>
<g clip-path="url(#clip0_76_1100)">
<path d="M14.4768 31.964H10.3304V17.8826H14.4768V31.964ZM12.4013 15.9618C11.0754 15.9618 10 14.8037 10 13.4054C10 12.7338 10.253 12.0897 10.7033 11.6148C11.1537 11.1399 11.7645 10.873 12.4013 10.873C13.0382 10.873 13.649 11.1399 14.0993 11.6148C14.5497 12.0897 14.8027 12.7338 14.8027 13.4054C14.8027 14.8037 13.7268 15.9618 12.4013 15.9618ZM29.9955 31.964H25.858V25.1093C25.858 23.4756 25.8268 21.3806 23.7022 21.3806C21.5464 21.3806 21.2161 23.1555 21.2161 24.9916V31.964H17.0741V17.8826H21.0509V19.8035H21.1089C21.6625 18.6971 23.0147 17.5295 25.0321 17.5295C29.2286 17.5295 30 20.4437 30 24.2289V31.964H29.9955Z" fill="white"/>
</g>
<defs>
<clipPath id="clip0_76_1100">
<rect width="20" height="21.0909" fill="white" transform="translate(10 10.8726)"/>
</clipPath>
</defs>
</svg>
