<svg width="40" height="43" viewBox="0 0 40 43" fill="none" xmlns="http://www.w3.org/2000/svg">
<ellipse cx="20" cy="21.4181" rx="20" ry="21.0909" fill="black" fill-opacity="0.3"/>
<g clip-path="url(#clip0_76_1096)">
<path d="M27.0045 13.9373C25.1339 11.9601 22.6429 10.8726 19.9955 10.8726C14.5312 10.8726 10.0848 15.5615 10.0848 21.3239C10.0848 23.1646 10.5402 24.963 11.4062 26.5495L10 31.9635L15.2545 30.5088C16.7009 31.342 18.3304 31.7799 19.9911 31.7799H19.9955C25.4554 31.7799 30 27.0909 30 21.3286C30 18.5368 28.875 15.9146 27.0045 13.9373ZM19.9955 30.0192C18.5134 30.0192 17.0625 29.6002 15.7991 28.8092L15.5 28.6209L12.3839 29.4825L13.2143 26.2765L13.0179 25.9469C12.192 24.5628 11.7589 22.9669 11.7589 21.3239C11.7589 16.536 15.4554 12.638 20 12.638C22.2009 12.638 24.2679 13.5419 25.8214 15.1849C27.375 16.8279 28.3304 19.0076 28.3259 21.3286C28.3259 26.1211 24.5357 30.0192 19.9955 30.0192ZM24.5134 23.513C24.2679 23.3812 23.0491 22.7503 22.8214 22.6656C22.5938 22.5761 22.4286 22.5338 22.2634 22.7974C22.0982 23.061 21.625 23.6448 21.4777 23.8237C21.3348 23.9979 21.1875 24.0214 20.942 23.8896C19.4866 23.1222 18.5312 22.5196 17.5714 20.7825C17.317 20.3211 17.8259 20.3541 18.2991 19.356C18.3795 19.1818 18.3393 19.0312 18.2768 18.8993C18.2143 18.7675 17.7188 17.4823 17.5134 16.9597C17.3125 16.4513 17.1071 16.5219 16.9554 16.5125C16.8125 16.5031 16.6473 16.5031 16.4821 16.5031C16.317 16.5031 16.0491 16.569 15.8214 16.8279C15.5938 17.0916 14.9554 17.7224 14.9554 19.0076C14.9554 20.2929 15.8438 21.5357 15.9643 21.7099C16.0893 21.8841 17.7098 24.5204 20.1964 25.655C21.7679 26.3706 22.3839 26.4318 23.1696 26.3094C23.6473 26.2341 24.6339 25.6786 24.8393 25.0666C25.0446 24.4545 25.0446 23.932 24.9821 23.8237C24.9241 23.706 24.7589 23.6401 24.5134 23.513Z" fill="white"/>
</g>
<defs>
<clipPath id="clip0_76_1096">
<rect width="20" height="21.0909" fill="white" transform="translate(10 10.8726)"/>
</clipPath>
</defs>
</svg>
